PathFileType	4	(X/Y/Z)	Walk10.trc
DataRate	CameraRate	NumFrames	NumMarkers	Units	OrigDataRate	OrigDataStartFrame	OrigNumFrames
200.000000	200.000000	5	61	mm	200.000000	391	495
Frame#	Times		LFHD		RFHD		CLAV		LASI		RASI		RACR1		RUA1		RFA1		RWRR		RCAR		LACR1		LUA1		LWRU		RTH3		LTH1		LTH3		LTH2		LTH4		LTB1		LTB2		LTB4		LLFC		RTB1		LCAR		LTB3		LFA1		STRN		RTB4		RWRU		RTB3		RTH2		LBHD		RMT5		RMFC		RLFC		RToe		RMT1		RTH4		RMMAL		RTB2		RTH1		LElbow		RElbow		LWRR		LMFC		T10		LPSI		RLMAL		RBHD		RBack		RCAL		RPSI		LToe		RElbowM		C7		LMMAL		LElbowM		LLMAL		LCAL		LMT5		LMT1
			X1	Y1	Z1	X2	Y2	Z2	X3	Y3	Z3	X4	Y4	Z4	X5	Y5	Z5	X6	Y6	Z6	X7	Y7	Z7	X8	Y8	Z8	X9	Y9	Z9	X10	Y10	Z10	X11	Y11	Z11	X12	Y12	Z12	X13	Y13	Z13	X14	Y14	Z14	X15	Y15	Z15	X16	Y16	Z16	X17	Y17	Z17	X18	Y18	Z18	X19	Y19	Z19	X20	Y20	Z20	X21	Y21	Z21	X22	Y22	Z22	X23	Y23	Z23	X24	Y24	Z24	X25	Y25	Z25	X26	Y26	Z26	X27	Y27	Z27	X28	Y28	Z28	X29	Y29	Z29	X30	Y30	Z30	X31	Y31	Z31	X32	Y32	Z32	X33	Y33	Z33	X34	Y34	Z34	X35	Y35	Z35	X36	Y36	Z36	X37	Y37	Z37	X38	Y38	Z38	X39	Y39	Z39	X40	Y40	Z40	X41	Y41	Z41	X42	Y42	Z42	X43	Y43	Z43	X44	Y44	Z44	X45	Y45	Z45	X46	Y46	Z46	X47	Y47	Z47	X48	Y48	Z48	X49	Y49	Z49	X50	Y50	Z50	X51	Y51	Z51	X52	Y52	Z52	X53	Y53	Z53	X54	Y54	Z54	X55	Y55	Z55	X56	Y56	Z56	X57	Y57	Z57	X58	Y58	Z58	X59	Y59	Z59	X60	Y60	Z60	X61	Y61	Z61

391	1.955	761.06	1585.2	25.605	759.1	1589.7	125.08	744.83	1304.5	80.694	731.48	897.79	-35.852	722.32	910.76	214.81	679.8	1333.8	250.63	687.52	1165.7	306.27	793.7	909.45	366.49	897.86	840.82	329.84	920.14	778.94	381.7	665.5	1347.5	-73.852	602.49	1183.9	-128.7	500.02	792.18	-181.92	585.86	587.97	246.46	716.36	729.94	-109.65	775.59	570.44	-80.884	796.07	674.25	-74.374	745.46	649.38	-97.082	902.7	375.5	7.0863	906.59	283.65	-46.231	924.29	291.92	11.877	828.66	448.31	-52.998	521.66	335.88	188.7	435.72	745.59	-196.9	951.2	211.72	17.523	494.86	917.56	-168.96	768.69	1168.9	85.297	489.05	255.75	179.09	852.06	806.54	366.94	454.04	177.59	165.78	662.46	658.14	239.47	627.63	1502.4	4.7297	454.92	25.438	188.41	507.28	447.42	90.76	536.32	443.77	219.57	548.64	24.341	139.16	494.78	32.903	104.93	610.6	665.56	265.34	388.94	108.38	93.572	441.77	271.37	216.03	638.08	746.27	286.65	535.4	1042	-136.62	694.25	1000.3	346.73	442.37	810.45	-148.68	816.9	431.41	79.696	558.99	1193	87.606	553.68	947.31	25.692	364.05	92.128	171.65	627.03	1515.3	147.19	559.93	1278.8	159.52	311.79	79.013	125.19	552.39	947.93	125.65	1138.8	121.69	4.0301	666.33	987.34	272.97	633.31	1405	81.436	952.73	111.36	58.544	539.18	1021.8	-65.457	940.14	85.39	-19.349	905.59	37.064	30.083	1056	82.755	-35.798	1087.7	109.18	35.486
392	1.96	768.2	1584.3	25.132	766.24	1588.8	124.61	752.35	1303.6	80.235	739.41	896.58	-35.94	729.61	909.91	214.81	687.02	1332.8	250.1	694.7	1164.8	305.98	801.4	909.21	366.8	906.05	841.25	330.37	928.64	779.59	382.37	673.23	1346.5	-74.414	609.77	1183.3	-129.42	505.96	792.06	-183.39	591.58	587.74	246.42	724.35	728.95	-109.86	782.9	569.24	-80.856	803.51	673	-73.752	753.12	648.29	-97.196	910.35	374.96	7.1862	915.4	283.15	-46.23	932.99	291.61	11.885	835.7	447.03	-52.803	525.49	335.71	188.96	441.44	745.55	-198.12	960.91	211.7	17.473	501.25	917.41	-170.08	776.28	1167.9	84.897	491.96	255.98	179.41	860.42	806.72	367.43	456.06	178.17	166.17	668.59	657.52	239.58	634.92	1501.3	4.2584	455.07	25.517	188.47	512.61	447.34	90.906	541.32	443.59	219.79	548.54	24.367	139.06	494.79	32.83	104.94	616.78	665.19	265.33	389.93	109.77	94.1	444.86	272.14	216.33	644.56	745.86	286.5	542.23	1041.6	-137.51	701.4	999.49	346.76	448.47	810.36	-149.86	823.31	429.67	79.797	566.58	1192	86.882	561.5	946.38	24.676	365.07	93.76	172.23	634.31	1514.2	146.68	567.34	1277.7	158.77	312.54	81.324	125.94	559.97	946.97	124.71	1149.7	123.84	3.8039	673.67	986.32	272.97	640.76	1403.9	80.847	963.67	111.33	58.449	545.99	1021.4	-66.472	951.44	85.234	-19.457	917.34	36.401	30.055	1067.3	83.91	-36.009	1098.8	110.72	35.248
393	1.965	775.36	1583.4	24.648	773.39	1587.9	124.13	759.91	1302.6	79.733	747.36	895.42	-36.059	737.01	909.05	214.76	694.26	1331.8	249.53	701.85	1163.9	305.65	809	908.95	367.09	914.11	841.59	330.92	936.97	780.15	383.07	680.96	1345.6	-75.014	617.18	1182.6	-130.19	512.22	791.87	-184.9	597.49	587.48	246.39	732.44	728.05	-110.05	790.34	568.17	-80.744	811.07	671.88	-73.114	760.9	647.31	-97.244	917.87	374.28	7.2929	923.77	282.51	-46.166	941.31	291.14	11.941	842.8	445.81	-52.615	529.47	335.52	189.25	447.53	745.42	-199.45	969.99	211.46	17.51	507.91	917.18	-171.28	783.92	1167	84.454	494.99	256.21	179.76	868.62	806.84	367.94	458.19	178.78	166.61	674.88	656.9	239.65	642.24	1500.2	3.7535	455.24	25.594	188.55	518.06	447.26	91.082	546.52	443.41	220.03	548.43	24.397	138.95	494.8	32.755	104.95	623.13	664.82	265.29	391	111.22	94.703	448.12	272.94	216.69	651.22	745.43	286.32	549.25	1041.1	-138.47	708.52	998.67	346.75	454.85	810.21	-151.16	829.83	428.09	79.879	574.2	1190.9	86.134	569.36	945.49	23.697	366.17	95.471	172.89	641.6	1513.1	146.13	574.78	1276.6	157.98	313.37	83.754	126.77	567.64	946.06	123.8	1159.7	125.27	3.6532	680.99	985.34	272.92	648.23	1402.9	80.221	973.7	111.12	58.486	552.95	1020.8	-67.567	961.72	84.908	-19.411	927.99	35.696	30.177	1077.6	84.578	-36.093	1108.9	111.68	35.118
394	1.97	782.53	1582.6	24.15	780.54	1587	123.64	767.49	1301.7	79.186	755.33	894.31	-36.214	744.54	908.2	214.66	701.52	1330.8	248.92	708.97	1163	305.28	816.5	908.66	367.37	922.05	841.85	331.49	945.12	780.63	383.81	688.7	1344.7	-75.651	624.73	1182	-131.01	518.82	791.61	-186.46	603.59	587.2	246.36	740.62	727.25	-110.21	797.92	567.23	-80.561	818.75	670.89	-72.474	768.79	646.44	-97.229	925.27	373.48	7.407	931.73	281.71	-46.035	949.27	290.49	12.051	849.98	444.67	-52.434	533.62	335.33	189.56	453.99	745.19	-200.89	978.45	210.98	17.64	514.84	916.89	-172.57	791.6	1166.2	83.968	498.15	256.45	180.14	876.66	806.92	368.45	460.42	179.43	167.1	681.35	656.27	239.67	649.57	1499.1	3.2146	455.44	25.672	188.65	523.62	447.19	91.286	551.91	443.19	220.27	548.31	24.427	138.82	494.79	32.679	104.97	629.67	664.44	265.22	392.15	112.75	95.381	451.53	273.76	217.09	658.04	745	286.11	556.45	1040.6	-139.52	715.59	997.87	346.69	461.53	809.97	-152.58	836.48	426.68	79.943	581.87	1189.9	85.365	577.25	944.66	22.766	367.38	97.263	173.63	648.9	1512	145.56	582.24	1275.6	157.15	314.3	86.31	127.68	575.4	945.19	122.94	1168.7	125.95	3.5907	688.29	984.39	272.84	655.71	1401.9	79.558	982.82	110.69	58.66	560.05	1020.3	-68.737	970.97	84.388	-19.208	937.53	34.929	30.447	1086.9	84.729	-36.039	1118	112.04	35.109
395	1.975	789.71	1581.8	23.64	787.71	1586.2	123.13	775.1	1300.9	78.595	763.33	893.26	-36.408	752.18	907.34	214.51	708.8	1329.9	248.28	716.08	1162.2	304.88	823.92	908.36	367.64	929.85	842.02	332.08	953.09	781	384.57	696.45	1343.8	-76.327	632.4	1181.3	-131.88	525.76	791.28	-188.07	609.9	586.89	246.33	748.87	726.55	-110.33	805.62	566.42	-80.321	826.53	670.05	-71.851	776.78	645.68	-97.16	932.57	372.54	7.5314	939.27	280.76	-45.834	956.87	289.65	12.216	857.24	443.6	-52.261	537.94	335.11	189.88	460.83	744.86	-202.43	986.31	210.26	17.867	522.03	916.52	-173.93	799.33	1165.4	83.435	501.44	256.7	180.56	884.55	806.93	368.98	462.78	180.11	167.64	688	655.63	239.64	656.91	1498.1	2.6411	455.66	25.752	188.77	529.3	447.1	91.519	557.52	442.95	220.53	548.18	24.456	138.68	494.78	32.6	105.01	636.39	664.04	265.13	393.39	114.34	96.129	455.13	274.6	217.54	665.04	744.54	285.86	563.84	1040	-140.65	722.63	997.11	346.6	468.5	809.64	-154.12	843.26	425.44	79.99	589.59	1188.9	84.578	585.18	943.9	21.893	368.69	99.136	174.45	656.21	1510.9	144.94	589.73	1274.6	156.28	315.33	89	128.66	583.24	944.36	122.12	1176.8	125.87	3.6317	695.58	983.47	272.7	663.2	1401	78.858	991.04	110.03	58.972	567.31	1019.7	-69.979	979.22	83.66	-18.846	945.98	34.088	30.86	1095.1	84.348	-35.839	1126.3	111.78	35.23
